<svg xmlns="http://www.w3.org/2000/svg"><symbol id="mecha-stilts" viewBox="0 0 192 192"><path d="M91.8 118.4h10.1v9.93H91.8zm13.3 0h15.8v9.93h-15.8zm-32.2 0h15.8v9.93H72.9zm-13.2 0h10.1v9.93H59.7zm37.2-65.8c-18.5 0-33.9 11.2-34.7 31.6h69.3c-.7-20.4-16.2-31.6-34.6-31.6zm27.1 65.8h10.1v9.93H124zm-73.8-3.2h93.3V87.3H50.2zm45.9-10.7h38.4a1.6 1.6 0 0 1 0 3.2H96.1a1.6 1.6 0 1 1 0-3.2z"/><path d="M96.9 0L13.7 48v96l83.2 48 83.1-48V48zm49.8 116.8a1.5 1.5 0 0 1-1.6 1.6h-7.9v9.9h7.9a1.6 1.6 0 0 1 0 3.2H48.6a1.6 1.6 0 0 1 0-3.2h7.9v-9.9h-7.9a1.5 1.5 0 0 1-1.6-1.6V85.7a1.5 1.5 0 0 1 1.6-1.5H59c.8-22.4 17.5-34.7 37.9-34.7s37 12.3 37.8 34.7h10.4a1.4 1.4 0 0 1 1.6 1.5z"/></symbol><symbol id="super-domes" viewBox="0 0 192 192"><path d="M94.3 96.3V64.5L71.6 96.3h22.7zm-42.4 15h42.4v17.5H51.9zm40.8-50a46.7 46.7 0 0 0-41.9 35h16.8zm4.7-.1v35.1H141a47 47 0 0 0-43.6-35.1zm0 50.1h7.1v17.5h-7.1z"/><path d="M95.9.5l-83.2 48v96l83.2 48 83.1-48v-96zm67.9 110.8H143v19.1a1.5 1.5 0 0 1-1.6 1.6H50.3a1.5 1.5 0 0 1-1.6-1.6v-19.1H27.9a1.6 1.6 0 1 1 0-3.2h11.8V97.9a1.6 1.6 0 0 1 1.6-1.6h6.2A50 50 0 0 1 95.7 58a.6.6 0 0 1 .6 0 49.9 49.9 0 0 1 48 38.3h6.1a1.5 1.5 0 0 1 1.6 1.6v10.2h11.8a1.6 1.6 0 0 1 0 3.2z"/><path d="M107.7 111.3h32.2v17.5h-32.2zM42.9 99.5h106v8.67h-106z"/></symbol><symbol id="space-bubbles" viewBox="0 0 192 192"><path d="M64.4 128.3h21.5l-6.5-7.9-15 7.9zm8.2-15.9H62.2l-13.8 16.4 2.2 3.1 26.6-14-4.6-5.5zM53.4 101h86.2v8.2H53.4zm75.4-3.1a40.2 40.2 0 0 0 1.9-12 34.2 34.2 0 0 0-68.3 0c0 4.1.3 8.4 1.9 12zm-52.1 14.5L90 128.3h11.3l13.3-15.9H76.7zm28.7 15.9h21.5l-15-7.9-6.5 7.9zm13.3-15.9l-4.8 5.5 26.8 14 2.2-3-13.8-16.5h-10.4z"/><path d="M95.7 0L12.5 48v96l83.2 48 83.1-48V48zm50.4 129.7l-3.6 5.2a1.7 1.7 0 0 1-2.1.5l-7.5-3.9H58.3l-7.6 3.9a1.6 1.6 0 0 1-2-.5l-3.7-5.2a1.7 1.7 0 0 1 .2-1.9l13.1-15.4h-6.5a1.5 1.5 0 0 1-1.6-1.6V99.5a1.5 1.5 0 0 1 1.6-1.6H61a44.7 44.7 0 0 1-1.8-12 37.3 37.3 0 0 1 74.6 0 41 41 0 0 1-1.7 12h9.1a1.5 1.5 0 0 1 1.6 1.6v11.3a1.5 1.5 0 0 1-1.6 1.6h-8l12.9 15.4a1.7 1.7 0 0 1 0 1.9z"/></symbol></svg>