<svg xmlns="http://www.w3.org/2000/svg"><symbol id="space-bubbles" viewBox="0 0 128 128"><path d="M43.6 85.5h14.2l-4.3-5.2-9.9 5.2zM49 74.9h-6.9l-9.3 11 1.5 2.1 17.8-9.4-3.1-3.7zm-12.8-7.5h57.5v5.47H36.2zm50.2-2.1a24.4 24.4 0 0 0 1.3-8 22.8 22.8 0 0 0-45.5 0 21.6 21.6 0 0 0 1.2 8zm-34.6 9.6l8.8 10.6h7.5L77 74.9H51.8zm19.1 10.6h14.3l-10-5.2-4.3 5.2zm8.8-10.6l-3.1 3.7L94.4 88l1.5-2-9.3-11.1h-6.9z"/><path d="M64.4 0L8.9 32v64l55.5 32 55.4-32V32zM98 86.5L95.6 90a1.2 1.2 0 0 1-1.4.3l-5-2.7H39.5l-5.1 2.7A1.3 1.3 0 0 1 33 90l-2.4-3.5a1.2 1.2 0 0 1 .1-1.3l8.8-10.3h-4.4a.9.9 0 0 1-1-1v-7.6a.9.9 0 0 1 1-1h6.1a31.5 31.5 0 0 1-1.1-8 24.9 24.9 0 1 1 48.5 8h6.1a1 1 0 0 1 1.1 1v7.6a1 1 0 0 1-1.1 1h-5.3L98 85.2a1.2 1.2 0 0 1 0 1.3z"/></symbol><symbol id="mecha-stilts" viewBox="0 0 128 128"><path d="M62.2 78.9h6.7v6.62h-6.7zm8.8 0h10.5v6.62H71zm-21.4 0h10.5v6.62H49.6zm-8.8 0h6.7v6.62h-6.7zm24.8-43.8c-12.3 0-22.6 7.5-23.2 21h46.3c-.5-13.5-10.8-21-23.1-21zm18.1 43.8h6.7v6.62h-6.7zm-49.2-2.1h62.2V58.2H34.5zM65 69.7h25.7a1.1 1.1 0 0 1 1 1 1.1 1.1 0 0 1-1 1.1H65a1.1 1.1 0 0 1-1-1.1 1.1 1.1 0 0 1 1-1z"/><path d="M65.6 0L10.1 32v64l55.5 32L121 96V32zm33.2 77.9a1 1 0 0 1-1.1 1h-5.2v6.6h5.2a1.2 1.2 0 0 1 1.1 1.1 1.1 1.1 0 0 1-1.1 1H33.4a1.1 1.1 0 0 1-1-1 1.2 1.2 0 0 1 1-1.1h5.3v-6.6h-5.3a.9.9 0 0 1-1-1V57.2a1 1 0 0 1 1-1.1h6.9C40.9 41.2 52 33 65.6 33s24.7 8.2 25.2 23.1h6.9a1 1 0 0 1 1.1 1.1z"/></symbol><symbol id="super-domes" viewBox="0 0 128 128"><path d="M62.5 64.4V43.1L47.4 64.4h15.1zm-28.3 10h28.3v11.67H34.2zM61.5 41a31.3 31.3 0 0 0-28 23.4h11.2zm3.1-.1v23.5h29a31.2 31.2 0 0 0-29-23.5zm0 33.5h4.7v11.67h-4.7z"/><path d="M63.6.5l-55.5 32v64l55.5 32 55.4-32v-64zm45.3 73.9H95v12.7a1 1 0 0 1-1.1 1H33.2a1 1 0 0 1-1.1-1V74.4H18.2a1.2 1.2 0 0 1-1-1.1 1.1 1.1 0 0 1 1-1h7.9v-6.9a1 1 0 0 1 1.1-1h4.1a33.4 33.4 0 0 1 32.2-25.6h.4a33.2 33.2 0 0 1 31.9 25.6h4.1a1 1 0 0 1 1.1 1v6.9h7.9a1.1 1.1 0 0 1 1 1 1.2 1.2 0 0 1-1 1.1z"/><path d="M71.4 74.4h21.4v11.67H71.4zm-43.2-7.9h70.7v5.78H28.2z"/></symbol></svg>